#!OML:ASF E:\I on waltz\AllaLogoMonkeySwing\Project 1\Capture day 1\Session 1\Subject1.ASF
:FULLY-SPECIFIED
:DEGREES
1255
root 1.17126 17.6457 -25.3261 2.85822 4.45065 -1.58876
lowerback 8.81378 2.76059 -2.75549
upperback 1.05828 3.44829 1.03204
thorax -4.06454 1.76028 2.19364
lowerneck -2.82892 13.4912 7.86234
upperneck 8.44189 18.3596 -7.35974
head 4.39057 9.02793 -2.39706
rclavicle -9.64882e-015 -1.12686e-014
rhumerus -35.9307 -20.3267 -73.1521
rradius 32.3927
rwrist 0.896731
rhand -3.88205 -396.097
rfingers 7.12502
rthumb 21.8672 -64.8814
lclavicle -9.64882e-015 -1.12686e-014
lhumerus -41.3859 21.0499 76.3287
lradius 41.2867
lwrist -1.8077
lhand -7.11793 -12.1514
lfingers 7.12502
lthumb 18.7574 16.9642
rfemur -10.8176 -1.85488 19.9505
rtibia 31.17
rfoot -21.3338 -10.6566
rtoes 15.1859
lfemur -10.748 0.386876 -21.361
ltibia 28.7238
lfoot -22.7897 -2.55521
ltoes -25.3522
1256
root 1.1807 17.6432 -25.3237 2.84899 4.39784 -1.63653
lowerback 8.78885 2.76307 -2.64166
upperback 1.02961 3.46207 1.00815
thorax -4.07307 1.76551 2.1037
lowerneck -2.85745 13.4679 7.96794
upperneck 8.50727 18.3313 -7.41777
head 4.42822 9.0129 -2.42513
rclavicle -1.77431e-014 -9.73424e-015
rhumerus -35.9467 -20.4326 -73.1799
rradius 32.336
rwrist 1.05908
rhand -3.82323 -396.064
rfingers 7.12502
rthumb 21.9237 -64.8413
lclavicle -1.77431e-014 -9.73424e-015
lhumerus -41.3853 20.9404 76.3305
lradius 41.4104
lwrist -1.71385
lhand -7.03064 -12.1046
lfingers 7.12502
lthumb 18.8414 17.0029
rfemur -10.8038 -1.83896 19.9583
rtibia 31.189
rfoot -21.4021 -10.5494
rtoes 15.2448
lfemur -10.7096 0.359524 -21.3551
ltibia 28.6943
lfoot -22.7449 -2.43026
ltoes -25.3542
1257
root 1.19079 17.6415 -25.3192 2.83148 4.33745 -1.56109
lowerback 8.73437 2.75819 -2.65764
upperback 1.01925 3.45397 0.973807
thorax -4.05177 1.76142 2.08027
lowerneck -2.91971 13.4982 8.0287
upperneck 8.60741 18.3871 -7.54659
head 4.4912 9.03345 -2.45629
rclavicle -3.00196e-014 3.16316e-014
rhumerus -35.914 -20.5735 -73.1644
rradius 32.2436
rwrist 1.07302
rhand -3.89537 -396.232
rfingers 7.12502
rthumb 21.8544 -65.0181
lclavicle -3.00196e-014 3.16316e-014
lhumerus -41.3841 20.9556 76.3622
lradius 41.5289
lwrist -1.61421
lhand -7.10648 -12.1455
lfingers 7.12502
lthumb 18.7684 16.9691
rfemur -10.7669 -1.85638 19.8176
rtibia 31.218
rfoot -21.5613 -10.3142
rtoes 14.7848
lfemur -10.6434 0.369647 -21.4888
ltibia 28.658
lfoot -22.6793 -2.32216
ltoes -25.6234
1258
root 1.1994 17.641 -25.3151 2.80539 4.27296 -1.35227
lowerback 8.70719 2.76238 -2.86452
upperback 1.01771 3.4384 0.924946
thorax -4.04647 1.75662 2.14855
lowerneck -2.98778 13.4607 8.29176
upperneck 8.84469 18.3674 -7.83645
head 4.62533 9.01363 -2.56107
rclavicle 1.40547e-016 -2.83206e-014
rhumerus -35.9198 -20.7217 -73.1098
rradius 32.2239
rwrist 0.999179
rhand -3.85406 -396.353
rfingers 7.12502
rthumb 21.8941 -65.1344
lclavicle 1.40547e-016 -2.83206e-014
lhumerus -41.3539 20.8932 76.4541
lradius 41.6397
lwrist -1.51473
lhand -7.29948 -12.1234
lfingers 7.12502
lthumb 18.5828 17.009
rfemur -10.7125 -1.92461 19.5374
rtibia 31.2423
rfoot -21.5578 -10.1769
rtoes 14.2697
lfemur -10.5511 0.361538 -21.7596
ltibia 28.6299
lfoot -22.6252 -2.26698
ltoes -25.9479
1259
root 1.20852 17.6414 -25.3111 2.8084 4.19484 -1.1688
lowerback 8.66153 2.76807 -3.04787
upperback 0.997578 3.42779 0.878969
thorax -4.04927 1.75426 2.20634
lowerneck -3.3034 13.4487 8.31969
upperneck 9.29967 18.3588 -7.79723
head 4.81512 8.99596 -2.51556
rclavicle 1.51333e-014 -2.18725e-014
rhumerus -35.9781 -20.7554 -73.0813
rradius 32.2832
rwrist 0.99847
rhand -3.74869 -396.386
rfingers 7.12502
rthumb 21.9953 -65.1555
lclavicle 1.51333e-014 -2.18725e-014
lhumerus -41.3128 20.8962 76.4933
lradius 41.6605
lwrist -1.58235
lhand -7.37661 -12.1553
lfingers 7.12502
lthumb 18.5086 16.9842
rfemur -10.6924 -1.96066 19.2875
rtibia 31.2497
rfoot -21.5718 -10.1009
rtoes 13.9656
lfemur -10.498 0.327693 -22.0044
ltibia 28.6208
lfoot -22.5763 -2.17537
ltoes -25.9511
1260
root 1.21914 17.6421 -25.3072 2.76477 4.12699 -1.22518
lowerback 8.64103 2.74739 -2.95123
upperback 0.981854 3.41069 0.894204
thorax -4.04838 1.74458 2.17075
lowerneck -3.56891 13.3877 8.24207
upperneck 9.69297 18.266 -7.57361
head 4.94419 8.94486 -2.4177
rclavicle -2.94745e-014 1.08959e-014
rhumerus -35.9742 -20.5494 -73.1434
rradius 32.2801
rwrist 0.917468
rhand -3.81112 -396.324
rfingers 7.12502
rthumb 21.9353 -65.1006
lclavicle -2.94745e-014 1.08959e-014
lhumerus -41.3007 20.9828 76.4991
lradius 41.6919
lwrist -1.58013
lhand -7.48123 -12.1838
lfingers 7.12502
lthumb 18.4079 16.9652
rfemur -10.6405 -1.89306 19.3072
rtibia 31.2547
rfoot -21.7084 -10.079
rtoes 14.0776
lfemur -10.4247 0.342403 -21.9822
ltibia 28.6222
lfoot -22.5752 -2.11
ltoes -25.6754
1261
root 1.23035 17.6418 -25.3045 2.66819 4.08358 -1.4108
lowerback 8.68261 2.71326 -2.73222
upperback 0.958535 3.38754 0.955737
thorax -4.08545 1.73073 2.11247
lowerneck -3.7901 13.3118 8.12503
upperneck 10.0786 18.1535 -7.31728
head 5.05604 8.88639 -2.31078
rclavicle 1.6013e-014 1.35174e-014
rhumerus -35.9776 -20.3211 -73.1802
rradius 32.234
rwrist 0.69461
rhand -3.86496 -396.279
rfingers 7.12502
rthumb 21.8836 -65.0611
lclavicle 1.6013e-014 1.35174e-014
lhumerus -41.3454 21.0398 76.5215
lradius 41.7956
lwrist -1.47262
lhand -7.54203 -12.1334
lfingers 7.12502
lthumb 18.3495 17.0211
rfemur -10.5403 -1.83975 19.4792
rtibia 31.2613
rfoot -21.7544 -10.1249
rtoes 13.9825
lfemur -10.3188 0.431625 -21.81
ltibia 28.6315
lfoot -22.6264 -2.13494
ltoes -25.2552
1262
root 1.24322 17.6415 -25.3029 2.63902 4.02108 -1.41782
lowerback 8.70807 2.70769 -2.69928
upperback 0.877416 3.38291 0.969568
thorax -4.18285 1.73 2.10564
lowerneck -3.89888 13.182 8.00972
upperneck 10.4664 17.9821 -7.11404
head 5.15148 8.80029 -2.23308
rclavicle -3.16937e-014 1.59897e-014
rhumerus -36.125 -20.4046 -73.0494
rradius 32.2242
rwrist 0.669293
rhand -3.77131 -396.372
rfingers 7.12502
rthumb 21.9736 -65.1439
lclavicle -3.16937e-014 1.59897e-014
lhumerus -41.4193 21.0424 76.5469
lradius 41.8346
lwrist -1.40722
lhand -7.35905 -12.157
lfingers 7.12502
lthumb 18.5255 16.9809
rfemur -10.5197 -1.83247 19.4437
rtibia 31.2859
rfoot -21.7025 -10.1476
rtoes 13.4679
lfemur -10.2738 0.481444 -21.857
ltibia 28.6375
lfoot -22.6183 -2.07434
ltoes -24.8047
1263
root 1.25779 17.6385 -25.3014 2.61965 3.89053 -1.30607
lowerback 8.77177 2.72628 -2.76644
upperback 0.756988 3.39765 0.942134
thorax -4.34717 1.74137 2.10672
lowerneck -4.22388 12.9672 8.26376
upperneck 11.4065 17.7566 -7.36794
head 5.52693 8.66282 -2.30903
rclavicle -1.84808e-015 -5.46658e-015
rhumerus -36.3531 -20.6452 -72.8297
rradius 32.1842
rwrist 0.922747
rhand -3.68163 -396.451
rfingers 7.12502
rthumb 22.0597 -65.213
lclavicle -1.84808e-015 -5.46658e-015
lhumerus -41.5416 20.959 76.5576
lradius 41.8197
lwrist -1.34789
lhand -7.30774 -12.2139
lfingers 7.12502
lthumb 18.5748 16.9193
rfemur -10.525 -1.75128 19.2534
rtibia 31.3447
rfoot -21.7274 -10.0856
rtoes 13.4117
lfemur -10.223 0.544273 -22.0513
ltibia 28.6338
lfoot -22.5794 -1.98744
ltoes -24.3801
1264
root 1.27164 17.6317 -25.2999 2.54728 3.71214 -1.11535
lowerback 8.88304 2.75749 -2.93931
upperback 0.660679 3.41681 0.908336
thorax -4.51926 1.75677 2.15819
lowerneck -4.16944 12.6106 8.33607
upperneck 11.7802 17.3104 -7.45036
head 5.61282 8.44048 -2.38082
rclavicle 3.56818e-014 -1.91827e-014
rhumerus -36.5116 -20.7433 -72.6648
rradius 32.0777
rwrist 1.10064
rhand -3.81924 -396.328
rfingers 7.12502
rthumb 21.9275 -65.1056
lclavicle 3.56818e-014 -1.91827e-014
lhumerus -41.6405 20.8223 76.6101
lradius 41.7765
lwrist -1.23966
lhand -7.55352 -12.1566
lfingers 7.12502
lthumb 18.3384 16.9989
rfemur -10.476 -1.61303 18.97
rtibia 31.4221
rfoot -21.8087 -9.96709
rtoes 13.7754
lfemur -10.111 0.739624 -22.3206
ltibia 28.6328
lfoot -22.6083 -2.00059
ltoes -24.1199
1265
root 1.28673 17.6259 -25.2988 2.53656 3.55235 -0.929052
lowerback 8.89095 2.77064 -3.11093
upperback 0.579211 3.41519 0.882192
thorax -4.61732 1.76135 2.22473
lowerneck -4.4729 12.2428 8.95413
upperneck 12.5607 16.9026 -8.1493
head 5.99027 8.20698 -2.67287
rclavicle -5.13734e-015 1.635e-014
rhumerus -36.5617 -20.7799 -72.5524
rradius 31.9355
rwrist 1.12985
rhand -4.01277 -396.174
rfingers 7.12502
rthumb 21.7417 -64.9726
lclavicle -5.13734e-015 1.635e-014
lhumerus -41.7621 20.9447 76.6103
lradius 41.7552
lwrist -1.42398
lhand -7.70842 -12.0452
lfingers 7.12502
lthumb 18.1894 17.1243
rfemur -10.5011 -1.55043 18.6915
rtibia 31.5086
rfoot -21.7969 -9.84495
rtoes 13.6869
lfemur -10.0731 0.905296 -22.5909
ltibia 28.6382
lfoot -22.6438 -2.0119
ltoes -24.0069
